<svg width="91" height="40" viewBox="0 0 91 40" fill="none" xmlns="http://www.w3.org/2000/svg">
<rect x="-1" y="1" width="38" height="38" rx="19" transform="matrix(-1 0 0 1 38 0)" fill="white"/>
<rect x="-1" y="1" width="38" height="38" rx="19" transform="matrix(-1 0 0 1 38 0)" stroke="#A06056" stroke-width="2"/>
<path fill-rule="evenodd" clip-rule="evenodd" d="M22.7929 12.2929C23.1834 11.9024 23.8166 11.9024 24.2071 12.2929C24.5976 12.6834 24.5976 13.3166 24.2071 13.7071L17.9142 20L24.2071 26.2929C24.5976 26.6834 24.5976 27.3166 24.2071 27.7071C23.8166 28.0976 23.1834 28.0976 22.7929 27.7071L15.7929 20.7071C15.4024 20.3166 15.4024 19.6834 15.7929 19.2929L22.7929 12.2929Z" fill="#A06056"/>
<rect x="52" y="1" width="38" height="38" rx="19" fill="white"/>
<rect x="52" y="1" width="38" height="38" rx="19" stroke="#A06056" stroke-width="2"/>
<path fill-rule="evenodd" clip-rule="evenodd" d="M68.2071 12.2929C67.8166 11.9024 67.1834 11.9024 66.7929 12.2929C66.4024 12.6834 66.4024 13.3166 66.7929 13.7071L73.0858 20L66.7929 26.2929C66.4024 26.6834 66.4024 27.3166 66.7929 27.7071C67.1834 28.0976 67.8166 28.0976 68.2071 27.7071L75.2071 20.7071C75.5976 20.3166 75.5976 19.6834 75.2071 19.2929L68.2071 12.2929Z" fill="#A06056"/>
</svg>
